<svg xmlns="http://www.w3.org/2000/svg" viewBox="0 0 402.13 226.57"><defs><style>.cls-1{fill:#fff}</style></defs><title>Layer 2</title><g id="Layer_2" data-name="Layer 2"><g id="Layer_1-2" data-name="Layer 1"><g id="Layer_2-2" data-name="Layer 2"><g id="Layer_1-2-2" data-name="Layer 1-2"><path d="M105.12 117.39H102l-7.93 15h2.72l1.72-3.39c.16-.29.94-1.78 1.19-2.24l.31-.57 3.55-6.68 6.76 12.86H113zm23.88 3.52a14.78 14.78 0 0 0-6.8-1.69 9 9 0 0 0-3.52.54c-.82.35-1.22.85-1.22 1.49s.43 1.14 1.3 1.45a11.78 11.78 0 0 0 3 .45c2.07.14 3.44.25 4.1.33a9 9 0 0 1 4.16 1.39 3.42 3.42 0 0 1 1.35 2.88 4.09 4.09 0 0 1-2.11 3.69 11.74 11.74 0 0 1-6.07 1.3c-3.83 0-6.8-.84-8.93-2.52l1.37-1.81a14.2 14.2 0 0 0 7.58 2.16 9.21 9.21 0 0 0 4.08-.73 2.15 2.15 0 0 0 1.39-1.92c0-1-.61-1.59-1.83-1.91a40.16 40.16 0 0 0-5.13-.52 14.92 14.92 0 0 1-5.2-1 3 3 0 0 1-1.74-2.92 3.74 3.74 0 0 1 2-3.34 10.6 10.6 0 0 1 5.58-1.22 14.13 14.13 0 0 1 8.12 2.22zm19.48 0a14.78 14.78 0 0 0-6.8-1.69 9 9 0 0 0-3.52.54c-.81.35-1.22.85-1.22 1.49s.43 1.14 1.3 1.45a11.78 11.78 0 0 0 3 .45c2.07.14 3.44.25 4.1.33a9 9 0 0 1 4.16 1.39 3.42 3.42 0 0 1 1.35 2.88 4.09 4.09 0 0 1-2.11 3.69 11.64 11.64 0 0 1-6.07 1.3c-3.83 0-6.8-.84-8.93-2.52l1.37-1.81a14.2 14.2 0 0 0 7.58 2.16 9.21 9.21 0 0 0 4.08-.73 2.15 2.15 0 0 0 1.39-1.92c0-1-.61-1.59-1.82-1.91a40.32 40.32 0 0 0-5.14-.52 14.92 14.92 0 0 1-5.2-1 3 3 0 0 1-1.74-2.92 3.79 3.79 0 0 1 2-3.34 10.65 10.65 0 0 1 5.59-1.22 14.13 14.13 0 0 1 8.12 2.22zm33.12 11.48h-2.49v-12.26h-.06l-7.79 9.78-7.73-9.78h-.06v12.26h-2.48v-15h3.1l7.19 9.07 7.22-9.07h3.1v15zm-90.9 0h-2.49v-12.26h-.06l-7.79 9.78-7.73-9.78h-.06v12.26h-2.49v-15h3.11l7.19 9.07 7.22-9.07h3.1v15zm104.78-15h-3.13l-7.94 15h2.72l1.73-3.35 1.21-2.24 3.87-7.27 3.81 7.27 1.21 2.24 1.73 3.35h2.72l-7.93-15zm27.75 15h-2.89l-4.06-5.72h-7.57v5.72h-2.48v-15h11.83a5.14 5.14 0 0 1 3.7 1.28 4.54 4.54 0 0 1 1.35 3.45 4.26 4.26 0 0 1-1.1 3.06 4.74 4.74 0 0 1-2.8 1.37zm-5.55-7.95c1.92 0 2.88-.78 2.88-2.32s-1-2.49-3.11-2.49h-8.74v4.81zm26.83 7.95h-3.2l-7.18-7.88-4.54 3.33v4.55h-2.48v-15h2.48v7.77l10.5-7.77h3.59l-7.67 5.68 8.5 9.32zm18.2 0h-15.7v-15h15.13v2.24H249.5v3.85h8.78v2.24h-8.78v4.43h13.21v2.24zm18.48-12.76h-7.16v12.76h-2.49v-12.76h-7.17v-2.24h16.82v2.24zm2.92-2.24h2.48v15h-2.48zm24.53 15h-3.09l-11.45-12.3v12.3h-2.49v-15h3.09l11.45 12.31v-12.31h2.49v15zm23.41-7.73a7.44 7.44 0 0 1-2.62 5.91 10.28 10.28 0 0 1-6.95 2.26 10.65 10.65 0 0 1-6.61-2 7.33 7.33 0 0 1-1.63-10.24 7.2 7.2 0 0 1 1.63-1.63 10.9 10.9 0 0 1 6.77-2 10.33 10.33 0 0 1 8.12 3.62l-2.32 1.16a8.63 8.63 0 0 0-10.79-1.1 5.24 5.24 0 0 0-1.29 7.31 4.92 4.92 0 0 0 1 1.06 7.8 7.8 0 0 0 5.1 1.58c3.33 0 5.49-1.29 6.46-3.88h-7v-2.23H332zm-188.39 24.92a14.72 14.72 0 0 0-6.79-1.7 9 9 0 0 0-3.53.54c-.81.36-1.22.85-1.22 1.49s.44 1.14 1.31 1.45a11.71 11.71 0 0 0 3 .45c2.07.14 3.44.25 4.1.34a8.87 8.87 0 0 1 4.17 1.38 3.44 3.44 0 0 1 1.34 2.88 4.11 4.11 0 0 1-2 3.69 11.64 11.64 0 0 1-6.07 1.3c-3.83 0-6.8-.84-8.93-2.52l1.37-1.8a14.3 14.3 0 0 0 7.58 2.15 9.21 9.21 0 0 0 4.08-.73 2.13 2.13 0 0 0 1.39-1.92c0-1-.61-1.59-1.82-1.91a38.58 38.58 0 0 0-5.14-.52 14.92 14.92 0 0 1-5.2-1 3 3 0 0 1-1.74-2.92 3.74 3.74 0 0 1 2-3.34 10.6 10.6 0 0 1 5.58-1.22 14.13 14.13 0 0 1 8.12 2.22zm22 11.47h-15.7v-14.99h15.12v2.23h-12.64v3.86h8.78v2.23h-8.78v4.43h13.22v2.24zm20.75 0h-2.89l-4.06-5.72h-7.57v5.72h-2.48v-15h11.83a5.14 5.14 0 0 1 3.7 1.28 4.54 4.54 0 0 1 1.35 3.45 4.26 4.26 0 0 1-1.1 3.06 4.72 4.72 0 0 1-2.79 1.37zm-5.55-8c1.92 0 2.88-.78 2.88-2.32s-1-2.49-3.11-2.49h-8.74v4.81zm26.04-6.99l-8.08 14.99h-2.86l-8.08-14.99h2.78l6.73 12.49 6.73-12.49h2.78zm2.61-.01h2.48v15h-2.48zm25 3.42l-2.26.81a8.32 8.32 0 0 0-6.38-2.42 7.76 7.76 0 0 0-5.06 1.59 5.25 5.25 0 0 0-.79 7.38 5.36 5.36 0 0 0 .79.79 9.31 9.31 0 0 0 11.49-.9l2.13 1.18a9.58 9.58 0 0 1-3.66 2.73 12.71 12.71 0 0 1-4.88.84 10.68 10.68 0 0 1-6.6-2 7.35 7.35 0 0 1 0-11.89 10.55 10.55 0 0 1 6.56-2q5.64 0 8.64 3.89m19.89 11.58h-15.7v-14.99h15.12v2.23h-12.64v3.86h8.78v2.23h-8.78v4.43h13.22v2.24zm16.9-11.47a14.72 14.72 0 0 0-6.79-1.7 9 9 0 0 0-3.53.54c-.81.36-1.22.85-1.22 1.49s.44 1.14 1.31 1.45a11.71 11.71 0 0 0 3 .45c2.07.14 3.44.25 4.1.34a8.87 8.87 0 0 1 4.17 1.38 3.44 3.44 0 0 1 1.34 2.88 4.09 4.09 0 0 1-2.11 3.69 11.64 11.64 0 0 1-6.07 1.3c-3.82 0-6.8-.84-8.92-2.52l1.36-1.8a14.3 14.3 0 0 0 7.58 2.15 9.21 9.21 0 0 0 4.08-.73 2.13 2.13 0 0 0 1.39-1.92c0-1-.61-1.59-1.82-1.91a38.58 38.58 0 0 0-5.14-.52 14.92 14.92 0 0 1-5.2-1 3 3 0 0 1-1.74-2.92 3.74 3.74 0 0 1 2-3.34 10.6 10.6 0 0 1 5.58-1.22 14.13 14.13 0 0 1 8.12 2.22zM181.52 51c.46 1.83-.29 3.65-1.74 4.09s-3.11-.79-3.6-2.74 1-9.11 1-9.11 3.82 6 4.36 7.76m6.46 7.14c-.61 1.68-2.23 2.67-3.68 2.08a3.32 3.32 0 0 1-1.49-4.29c.62-1.78 5.66-6.13 5.66-6.13s0 6.63-.49 8.34m3.57 8.65a2.94 2.94 0 0 1-3.34 2.47h-.09a3.29 3.29 0 0 1-1.93-4.08c.43-1.84 5-6.67 5-6.67s.7 6.55.36 8.29m4.51 8.06a3 3 0 0 1-3.1 2.87 3.26 3.26 0 0 1-2.41-3.8c.21-1.88 4.24-7.15 4.24-7.15s1.38 6.33 1.27 8.08M175 62.72c1.62 1.14 3.48.79 4.2-.65a3.81 3.81 0 0 0-1.48-4.55c-1.54-1.06-8.2-2.81-8.2-2.81s3.8 6.95 5.48 8m4.15 10.05c1.73 1 3.55.4 4.1-1.1a3.87 3.87 0 0 0-2-4.39c-1.64-.89-8.45-2-8.45-2s4.51 6.56 6.31 7.44m5.4 9.63c1.85.76 3.58 0 3.93-1.6a3.9 3.9 0 0 0-2.5-4.13c-1.74-.69-8.63-1-8.63-1s5.28 6.1 7.2 6.75m17.05-.24c0 1.75-1.09 3.27-2.65 3.29A3.2 3.2 0 0 1 196 82c-.06-1.89 3.27-7.6 3.27-7.6s2.14 6 2.29 7.7m-10.35 9.12c1.95.5 3.56-.56 3.65-2.16a4 4 0 0 0-3.08-3.75c-1.82-.43-8.73.1-8.73.1s6.13 5.45 8.16 5.81" class="cls-1"/><path d="M217.8 102.57a57 57 0 0 1-24.19-18.27 84.63 84.63 0 0 1-13.83-27.08.66.66 0 0 1 .38-.83.64.64 0 0 1 .78.46 83.73 83.73 0 0 0 13.63 26.69 55.81 55.81 0 0 0 23.67 17.89.65.65 0 0 1 .41.82.63.63 0 0 1-.83.33m-3.39-51.08a1.75 1.75 0 1 1-3.07-1.44c.49-1.21 4.06-3.94 4.06-3.94a46.73 46.73 0 0 1-1 5.38m.46 5.79a1.83 1.83 0 0 1-2.57-.33 2 2 0 0 1 .86-2.62c1-.64 5-.71 5-.71a38.44 38.44 0 0 1-3.33 3.66m-1.18 5.41a1.83 1.83 0 0 1-2.59.09 2 2 0 0 1 .42-2.72c.86-.79 4.85-1.46 4.85-1.46a39.4 39.4 0 0 1-2.68 4.09m-.31 5.53a1.84 1.84 0 0 1-2.55.51 2 2 0 0 1 0-2.74c.72-.93 4.55-2.24 4.55-2.24a40.62 40.62 0 0 1-2 4.47m-6.53-13.46a1.65 1.65 0 0 0 1.9 1.35 1.42 1.42 0 0 0 .4-.12 2.48 2.48 0 0 0 1-2.83 33 33 0 0 0-2.81-4.57s-.93 5-.47 6.17m-1.55 6.75a1.64 1.64 0 0 0 2.09 1 1.33 1.33 0 0 0 .38-.18 2.5 2.5 0 0 0 .52-3 36.78 36.78 0 0 0-3.48-4.1s-.16 5.12.49 6.21m-.39 7.01a1.64 1.64 0 0 0 2.22.67 1.72 1.72 0 0 0 .35-.25 2.49 2.49 0 0 0 0-3 36.88 36.88 0 0 0-4.11-3.48s.7 5.11 1.52 6.07m9.12 5.28a1.84 1.84 0 0 1-2.42.92A2 2 0 0 1 211 72c.56-1 4.12-3 4.12-3a40.94 40.94 0 0 1-1.12 4.75m-8.35 1.59a1.64 1.64 0 0 0 2.3.3 2.13 2.13 0 0 0 .3-.3 2.45 2.45 0 0 0-.46-3 36 36 0 0 0-4.63-2.75s1.53 4.9 2.49 5.71" class="cls-1"/><path d="M215.76 89.93a41.11 41.11 0 0 1-6.69-17.52 38.16 38.16 0 0 1 2.15-18.6.39.39 0 0 1 .48-.27.41.41 0 0 1 .2.52c-4.54 11.6-2.52 25.23 4.45 35.43a.38.38 0 0 1 0 .54.39.39 0 0 1-.54 0l-.08-.12m14.69-31.14a1.41 1.41 0 0 1-1.83.46 1.37 1.37 0 0 1 0-1.94c.54-.73 3.41-2 3.41-2a31.92 31.92 0 0 1-1.59 3.47m-.65 3.99a1.27 1.27 0 0 1-1.68-.64 1.38 1.38 0 0 1 1-1.63c.77-.27 3.52.36 3.52.36a25 25 0 0 1-2.86 1.92M228 66.2a1.27 1.27 0 0 1-1.76-.37 1.37 1.37 0 0 1 .74-1.76c.71-.4 3.52-.18 3.52-.18a27.36 27.36 0 0 1-2.5 2.31m-1.1 3.69a1.28 1.28 0 0 1-1.8-.08 1.37 1.37 0 0 1 .43-1.86c.64-.51 3.45-.75 3.45-.75a27.15 27.15 0 0 1-2.08 2.69m-2.16-10.19a1.13 1.13 0 0 0 1.34 1.22 1.72 1.72 0 0 0 1.14-1.75 23.26 23.26 0 0 0-1.13-3.55s-1.46 3.21-1.35 4.08m-2.16 4.3a1.13 1.13 0 0 0 1.21 1.06.81.81 0 0 0 .31-.06 1.72 1.72 0 0 0 .85-1.91 24.32 24.32 0 0 0-1.67-3.35s-1 3.43-.7 4.28m-1.42 4.61a1.13 1.13 0 0 0 1.37.83 1.48 1.48 0 0 0 .29-.12 1.72 1.72 0 0 0 .52-2 24.84 24.84 0 0 0-2.2-3s-.38 3.56 0 4.35m5.25 5.03a1.27 1.27 0 0 1-1.78.22 1.37 1.37 0 0 1 .12-1.91c.55-.6 3.28-1.31 3.28-1.31a27.06 27.06 0 0 1-1.61 3m-5.88-.32a1.16 1.16 0 0 0 1.48.6 1.2 1.2 0 0 0 .24-.15 1.73 1.73 0 0 0 .18-2.08 25.5 25.5 0 0 0-2.67-2.63s.21 3.57.73 4.27" class="cls-1"/><path d="M224.91 85a28.61 28.61 0 0 1-1.59-13 26.52 26.52 0 0 1 4.55-12.21.28.28 0 0 1 .37-.1.27.27 0 0 1 .05.38 27 27 0 0 0-2.9 24.68.29.29 0 0 1-.13.36.28.28 0 0 1-.36-.17" class="cls-1"/><path d="M201.07 217.24l-.51-.26L1.12 112.44l1.86-1L201.07 8.74l.5.26L401 112.44zM5.85 112.45l195.22 102.32 195.21-102.32L201.07 11.21z" class="cls-1"/><path d="M201.07 217.53l-.63-.33L.56 112.44l2.3-1.19L201.07 8.45l.62.33 199.88 103.66-.44.23zM1.68 112.45L201.07 217l199.38-104.5L201.07 9zm199.39 102.61L201 215 5.3 112.45l.44-.23 195.33-101.3.11.06 195.66 101.47-.44.23zM6.41 112.46l194.66 102 194.65-102L201.07 11.5z" class="cls-1"/><path d="M201.07 226l-.51-.27L1.12 121.19l1.86-1 198.09-102.7.5.26L401 121.19zM5.85 121.2l195.22 102.31L396.28 121.2 201.07 20z" class="cls-1"/><path d="M201.07 226.57l-.75-.39L0 121.19l2.74-1.43L201.07 16.91l.74.38 200.32 103.9-.88.46zM2.23 121.19L201.07 225.4 399.9 121.19 201.07 18.07zM201.07 224.1l-.24-.13L4.74 121.2 201.07 19.37l.23.13 196.09 101.7zM7 121.2l194.1 101.73L395.16 121.2 201.07 20.54z" class="cls-1"/><path d="M201.07 208.5l-.51-.27L1.12 103.7l1.86-1L201.07 0l.5.26L401 103.7zM5.85 103.71L201.07 206l195.21-102.29L201.07 2.47z" class="cls-1"/></g></g></g></g></svg>