<svg xmlns="http://www.w3.org/2000/svg" viewBox="0 0 275.38 259.08"><title>Asset 1</title><g data-name="Layer 2"><g data-name="Layer 1"><path d="M52.39 33.87c2 8-1.23 15.93-7.6 17.83s-13.53-3.42-15.69-12C26.53 31.07 33.39 0 33.39 0s16.66 26.18 19 33.87M80.62 65C78 72.31 70.9 76.61 64.56 74s-9.38-11.15-6.48-18.69c2.7-7.8 24.7-26.75 24.7-26.75S82.91 57.5 80.62 65m15.64 37.71c-1.85 7.53-8.39 12.58-15 10.76s-10.51-10-8.42-17.83c1.88-8 21.84-29.09 21.84-29.09s3 28.56 1.57 36.16m19.68 35.21c-.93 7.63-6.76 13.49-13.52 12.54s-11.68-8.59-10.5-16.57c.91-8.21 18.47-31.23 18.47-31.23s6.05 27.63 5.55 35.26M23.92 85c7 4.94 15.17 3.41 18.3-2.86s.26-14.92-6.45-19.87C29.05 57.62 0 50 0 50s16.59 30.35 23.92 35m18.15 43.77C49.63 133 57.56 130.53 60 124s-1.37-14.89-8.56-19.12c-7.17-3.9-36.87-8.52-36.87-8.52s19.7 28.61 27.55 32.46m23.33 41.77c8.09 3.29 15.63-.17 17.15-7s-3.26-14.63-10.9-18c-7.59-3-37.69-4.42-37.69-4.42s23.06 26.58 31.44 29.45m74.38-1.02c.08 7.64-4.72 14.27-11.56 14.39s-12.76-6.79-12.68-14.79c-.27-8.27 14.28-33.21 14.28-33.21s9.3 26.09 10 33.61M94.7 209.34c8.51 2.17 15.51-2.45 15.93-9.44s-5.37-14.05-13.45-16.36c-8-1.88-38.08.43-38.08.43s26.72 23.8 35.6 25.37"/><path d="M210.7 258.85c-41.76-16.07-78.17-44.62-105.54-79.72C77.6 144 58.09 103.26 44.79 60.94a2.68 2.68 0 1 1 5.1-1.59c13.13 41.8 32.4 82 59.47 116.47 26.88 34.47 62.46 62.34 103.29 78.06a2.86 2.86 0 0 1 1.77 3.56 2.79 2.79 0 0 1-3.72 1.41M196 36c-2.15 4.53-6.71 7.08-10.5 5.57s-5.17-6.87-2.82-11.84c2.16-5.3 17.74-17.22 17.74-17.22S197.79 31.49 196 36m2 25.28c-3.94 2.51-9 2.09-11.21-1.46s-.46-8.9 3.73-11.44c4.29-2.79 22-3.1 22-3.1s-10.75 13.22-14.5 16m-5.4 23.61c-3.47 3.1-8.56 3.52-11.29.38s-1.91-8.7 1.85-11.86C186.92 70 204.36 67 204.36 67s-8.5 14.49-11.74 17.85M191.27 109c-2.93 3.64-7.82 4.9-11.08 2.24s-3.36-8.25-.15-12c3.14-4 19.84-9.74 19.84-9.74s-6 15.61-8.61 19.49M162.8 50.27c1.6 5.19 6.16 7.36 10 5.36s5.7-7.32 4.32-12.33c-1.49-4.77-12.26-19.93-12.26-19.93s-4.07 21.75-2.07 26.9m-6.67 29.48c2.43 4.88 7.29 6.27 10.77 3.66s4.41-8.16 2.29-12.89C166.87 66 154 52.62 154 52.62s-.68 22.37 2.16 27.13M154.42 110c3.18 4.41 8.26 5 11.21 1.82s3-8.78.11-13.1c-3-4-18-15.18-18-15.18s3 22.26 6.63 26.46m39.52 23.09c-2.28 4.09-6.95 6.11-10.56 4s-4.65-7.61-2.1-11.83c2.43-4.5 18-12.91 18-12.91s-3.31 16.45-5.3 20.73M157.69 140c3.86 3.82 8.93 3.57 11.36 0s1.52-9.14-2-12.92c-3.6-3.48-20.19-12-20.19-12s6.65 21.37 10.85 24.91"/><path d="M201.81 203.69a179.14 179.14 0 0 1-29.19-76.43A166.71 166.71 0 0 1 182 46.08a1.72 1.72 0 0 1 2.17-1.08 1.76 1.76 0 0 1 .88 2.28c-19.83 50.6-11 110.07 19.43 154.56a1.77 1.77 0 0 1-.26 2.42 1.73 1.73 0 0 1-2.41-.53M265.79 67.7c-2.21 2.7-5.71 3.67-8 2s-2.35-5.51.07-8.48c2.35-3.22 14.86-8.67 14.86-8.67S267.75 65 265.79 67.7m-2.88 17.41c-3.08 1-6.45-.1-7.32-2.87s1.17-6.08 4.43-7.1c3.36-1.17 15.36 1.58 15.36 1.58s-9.47 7.13-12.47 8.39m-7.55 15.05c-2.86 1.52-6.38 1-7.7-1.63s.16-6.19 3.24-7.7c3.1-1.71 15.36-.77 15.36-.77s-8.16 8.37-10.9 10.1m-4.94 16.06c-2.59 2-6.1 2-7.86-.33s-.89-6.13 1.9-8.13c2.79-2.2 15-3.27 15-3.27s-6.63 9.55-9.06 11.73M241 71.79c.22 3.78 2.93 6 5.88 5.3s5.07-4 5-7.61-5-15.52-5-15.52S240.49 68 241 71.79m-9.44 18.8c.82 3.71 3.87 5.46 6.66 4.28s4.34-4.78 3.69-8.33c-.81-3.41-7.29-14.63-7.29-14.63s-4.19 15-3.06 18.68m-6.2 20.16c1.42 3.51 4.75 4.74 7.27 3.1s3.48-5.44 2.25-8.83c-1.34-3.22-9.58-13.25-9.58-13.25s-1.67 15.54.06 19m22.81 22.17c-2.22 2.38-5.71 3-7.8.95s-1.87-5.93.55-8.35c2.4-2.64 14.29-5.73 14.29-5.73s-5 10.56-7 13.13m-25.65-1.36c2 3.22 5.44 3.9 7.68 1.89s2.55-5.92.79-9.07c-1.86-2.94-11.65-11.46-11.65-11.46s.93 15.55 3.18 18.64"/><path d="M241.74 182a124.64 124.64 0 0 1-7-56.5 116 116 0 0 1 19.86-53.28 1.2 1.2 0 0 1 1.66-.4 1.21 1.21 0 0 1 .22 1.69c-21.83 30.88-25.78 72.53-12.66 107.65a1.22 1.22 0 0 1-.57 1.59 1.2 1.2 0 0 1-1.55-.75"/></g></g></svg>